%TF.GenerationSoftware,KiCad,Pcbnew,(6.0.0)*%
%TF.CreationDate,2022-08-09T11:57:35-04:00*%
%TF.ProjectId,attiny412led_test,61747469-6e79-4343-9132-6c65645f7465,rev?*%
%TF.SameCoordinates,Original*%
%TF.FileFunction,Copper,L1,Top*%
%TF.FilePolarity,Positive*%
%FSLAX46Y46*%
G04 Gerber Fmt 4.6, Leading zero omitted, Abs format (unit mm)*
G04 Created by KiCad (PCBNEW (6.0.0)) date 2022-08-09 11:57:35*
%MOMM*%
%LPD*%
G01*
G04 APERTURE LIST*
%TA.AperFunction,SMDPad,CuDef*%
%ADD10R,2.500000X1.700000*%
%TD*%
%TA.AperFunction,SMDPad,CuDef*%
%ADD11R,2.000000X0.800000*%
%TD*%
%TA.AperFunction,SMDPad,CuDef*%
%ADD12R,1.700000X2.500000*%
%TD*%
%TA.AperFunction,SMDPad,CuDef*%
%ADD13R,2.000000X1.700000*%
%TD*%
%TA.AperFunction,SMDPad,CuDef*%
%ADD14R,1.700000X2.000000*%
%TD*%
%TA.AperFunction,Conductor*%
%ADD15C,0.500000*%
%TD*%
G04 APERTURE END LIST*
D10*
%TO.P,J1,1*%
%TO.N,/gnd*%
X123200000Y-74250000D03*
%TO.P,J1,2*%
X123200000Y-76790000D03*
%TD*%
D11*
%TO.P,U1,1,VCC*%
%TO.N,/power*%
X112450000Y-81202500D03*
%TO.P,U1,2,TXD/PA6/DAC*%
%TO.N,/tx*%
X112450000Y-82472500D03*
%TO.P,U1,3,RXD/PA7*%
%TO.N,/rx*%
X112450000Y-83742500D03*
%TO.P,U1,4,PA1/SDA*%
%TO.N,/sda*%
X112450000Y-85012500D03*
%TO.P,U1,5,PA2/SCL*%
%TO.N,/scl*%
X118050000Y-85012500D03*
%TO.P,U1,6,~{RESET}/UPDI/PA0*%
%TO.N,/updi*%
X118050000Y-83742500D03*
%TO.P,U1,7,PA3/SCK*%
%TO.N,/led pin*%
X118050000Y-82472500D03*
%TO.P,U1,8,GND*%
%TO.N,/gnd*%
X118050000Y-81202500D03*
%TD*%
D12*
%TO.P,J3,1,Pin_1*%
%TO.N,/updi*%
X120100000Y-89200000D03*
%TO.P,J3,2,Pin_2*%
%TO.N,/scl*%
X117560000Y-89200000D03*
%TO.P,J3,3,Pin_3*%
%TO.N,/sda*%
X115020000Y-89200000D03*
%TO.P,J3,4,Pin_4*%
%TO.N,/rx*%
X112480000Y-89200000D03*
%TO.P,J3,5,Pin_5*%
%TO.N,/tx*%
X109940000Y-89200000D03*
%TD*%
D13*
%TO.P,R1,1*%
%TO.N,/power*%
X114000000Y-75000000D03*
%TO.P,R1,2*%
%TO.N,Net-(D1-Pad2)*%
X118000000Y-75000000D03*
%TD*%
%TO.P,C1,1*%
%TO.N,/power*%
X113750000Y-78250000D03*
%TO.P,C1,2*%
%TO.N,/gnd*%
X117750000Y-78250000D03*
%TD*%
D10*
%TO.P,J2,1*%
%TO.N,/power*%
X109550000Y-78250000D03*
%TO.P,J2,2*%
X109550000Y-75710000D03*
%TD*%
D14*
%TO.P,D1,1,K*%
%TO.N,/led pin*%
X122750000Y-85000000D03*
%TO.P,D1,2,A*%
%TO.N,Net-(D1-Pad2)*%
X122750000Y-81000000D03*
%TD*%
D15*
%TO.N,Net-(D1-Pad2)*%
X118000000Y-75000000D02*
X119500000Y-75000000D01*
X120250000Y-75750000D02*
X120250000Y-78750000D01*
X122500000Y-81000000D02*
X122750000Y-81000000D01*
X120250000Y-78750000D02*
X122500000Y-81000000D01*
X119500000Y-75000000D02*
X120250000Y-75750000D01*
%TO.N,/led pin*%
X120222500Y-82472500D02*
X118050000Y-82472500D01*
X122750000Y-85000000D02*
X120222500Y-82472500D01*
%TO.N,/gnd*%
X123200000Y-74250000D02*
X121950000Y-73000000D01*
X116000000Y-77000000D02*
X117250000Y-78250000D01*
X116000000Y-73750000D02*
X116000000Y-77000000D01*
X123200000Y-76790000D02*
X123200000Y-74250000D01*
X117750000Y-80902500D02*
X118050000Y-81202500D01*
X117250000Y-78250000D02*
X117750000Y-78250000D01*
X116750000Y-73000000D02*
X116000000Y-73750000D01*
X121950000Y-73000000D02*
X116750000Y-73000000D01*
X117750000Y-78250000D02*
X117750000Y-80902500D01*
%TO.N,/power*%
X112450000Y-79550000D02*
X113750000Y-78250000D01*
X113750000Y-75250000D02*
X114000000Y-75000000D01*
X109550000Y-78250000D02*
X109550000Y-78302500D01*
X109550000Y-75710000D02*
X109550000Y-78250000D01*
X113750000Y-78250000D02*
X113750000Y-75250000D01*
X109550000Y-78302500D02*
X112450000Y-81202500D01*
X112450000Y-81202500D02*
X112450000Y-79550000D01*
%TO.N,/rx*%
X110500000Y-86500000D02*
X110500000Y-84250000D01*
X112480000Y-88480000D02*
X110500000Y-86500000D01*
X111007500Y-83742500D02*
X112450000Y-83742500D01*
X112480000Y-89200000D02*
X112480000Y-88480000D01*
X110500000Y-84250000D02*
X111007500Y-83742500D01*
%TO.N,/tx*%
X108500000Y-87760000D02*
X108500000Y-84250000D01*
X108500000Y-84250000D02*
X110277500Y-82472500D01*
X110277500Y-82472500D02*
X112450000Y-82472500D01*
X109940000Y-89200000D02*
X108500000Y-87760000D01*
%TO.N,/scl*%
X117560000Y-85502500D02*
X118050000Y-85012500D01*
X117560000Y-89200000D02*
X117560000Y-85502500D01*
%TO.N,/sda*%
X115020000Y-87582500D02*
X112450000Y-85012500D01*
X115020000Y-89200000D02*
X115020000Y-87582500D01*
%TO.N,/updi*%
X120100000Y-84542500D02*
X119300000Y-83742500D01*
X120100000Y-89200000D02*
X120100000Y-84542500D01*
X119300000Y-83742500D02*
X118050000Y-83742500D01*
%TD*%
M02*
